# xmcd CD database file
#
# Track frame offsets:
#	150
#	23206
#	39414
#	48224
#	61830
#	77121
#	101881
#
# Disc length: 1501 seconds
#
# Revision: 0
# Processed by: cddbd v1.5PL3 Copyright (c) Steve Scherf et al.
# Submitted via: CDex 1.40Release
#
DISCID=5005db07
DTITLE=大正九年 - 銀吟堂ミステリー
DYEAR=2001
DGENRE=Pop
TTITLE0=日本学
TTITLE1=ファンタジー・ＳＦ・ギャグ
TTITLE2=拙者
TTITLE3=失礼しましたプロポーズ
TTITLE4=魚の雨やんだ
TTITLE5=遊びに夢中な夜に☆．．．
TTITLE6=ドロドロ
EXTD=YEAR: 2001 ID3G: 13
EXTT0=
EXTT1=
EXTT2=
EXTT3=
EXTT4=
EXTT5=
EXTT6=
PLAYORDER=
